<svg width="64" height="64" viewBox="0 0 64 64" xmlns="http://www.w3.org/2000/svg">
  <path d="M32 32 Q16 64 32 64" stroke="#15803d" stroke-width="6" fill="none" />
  <path d="M32 40 C10 40 10 60 32 60" fill="#166534" />
  <!-- Head -->
  <circle cx="32" cy="24" r="20" fill="#7e22ce" />
  <!-- Mouth / Teeth -->
  <path d="M12 24 L52 24 Q32 44 12 24" fill="#000000" />
  <path d="M16 24 L20 16 L24 24 Z M28 24 L32 16 L36 24 Z M40 24 L44 16 L48 24 Z" fill="#ffffff" />
  <path d="M20 24 L24 32 L28 24 Z M32 24 L36 32 L40 24 Z" fill="#ffffff" />
  <!-- Lips -->
  <path d="M12 24 Q32 20 52 24" stroke="#a855f7" stroke-width="4" fill="none" />
</svg>