<svg width="100" height="100" viewBox="0 0 100 100" xmlns="http://www.w3.org/2000/svg">
  <!-- Base Vines/Leaves -->
  <path d="M10 85 Q30 70 50 85 Q70 70 90 85 Q70 95 50 90 Q30 95 10 85 Z" fill="#166534" stroke="#14532D" stroke-width="2" />
  <!-- Spikes -->
  <path d="M20 80 L25 40 L30 80 Z" fill="#4ADE80" stroke="#16A34A" stroke-width="1" />
  <path d="M35 85 L40 30 L45 85 Z" fill="#4ADE80" stroke="#16A34A" stroke-width="1" />
  <path d="M50 85 L55 20 L60 85 Z" fill="#4ADE80" stroke="#16A34A" stroke-width="1" />
  <path d="M65 85 L70 35 L75 85 Z" fill="#4ADE80" stroke="#16A34A" stroke-width="1" />
  <path d="M80 80 L85 45 L90 80 Z" fill="#4ADE80" stroke="#16A34A" stroke-width="1" />
  <!-- Eyes -->
  <circle cx="45" cy="70" r="3" fill="#FFF" />
  <circle cx="55" cy="70" r="3" fill="#FFF" />
  <circle cx="45" cy="70" r="1.5" fill="#000" />
  <circle cx="55" cy="70" r="1.5" fill="#000" />
</svg>