<svg width="100" height="100" viewBox="0 0 100 100" xmlns="http://www.w3.org/2000/svg">
  <!-- Squash Body -->
  <path d="M30 85 Q50 95 70 85 Q85 60 75 35 Q65 15 50 15 Q35 15 25 35 Q15 60 30 85 Z" fill="#16A34A" stroke="#14532D" stroke-width="3" />
  <path d="M50 15 L50 88 M35 25 Q30 50 40 85 M65 25 Q70 50 60 85" stroke="#15803D" stroke-width="2" fill="none" opacity="0.6" />
  <!-- Stem -->
  <path d="M50 15 Q55 5 45 5" stroke="#14532D" stroke-width="6" fill="none" stroke-linecap="round" />
  <!-- Angry Face -->
  <path d="M35 50 L45 55 M65 50 L55 55" stroke="#000" stroke-width="3" stroke-linecap="round" />
  <circle cx="42" cy="58" r="3" fill="#000" />
  <circle cx="58" cy="58" r="3" fill="#000" />
  <path d="M40 75 Q50 80 60 75" stroke="#000" stroke-width="3" fill="none" />
</svg>