<svg width="64" height="64" viewBox="0 0 64 64" xmlns="http://www.w3.org/2000/svg">
  <!-- Stem -->
  <rect x="28" y="32" width="8" height="32" fill="#15803d" />
  <!-- Petals -->
  <path d="M32 4 L38 20 L32 24 L26 20 Z" fill="#fde047" />
  <path d="M32 60 L38 44 L32 40 L26 44 Z" fill="#fde047" />
  <path d="M4 32 L20 26 L24 32 L20 38 Z" fill="#fde047" />
  <path d="M60 32 L44 26 L40 32 L44 38 Z" fill="#fde047" />
  <path d="M12 12 L24 20 L28 28 L16 24 Z" fill="#fde047" />
  <path d="M52 52 L40 44 L36 36 L48 40 Z" fill="#fde047" />
  <path d="M52 12 L40 20 L36 28 L48 24 Z" fill="#fde047" />
  <path d="M12 52 L24 44 L28 36 L16 40 Z" fill="#fde047" />
  <!-- Face -->
  <circle cx="32" cy="32" r="14" fill="#78350f" />
  <circle cx="28" cy="28" r="2" fill="#000000" />
  <circle cx="36" cy="28" r="2" fill="#000000" />
  <path d="M26 36 Q32 42 38 36" stroke="#000000" stroke-width="2" fill="none" />
</svg>