<svg width="100" height="100" viewBox="0 0 100 100" xmlns="http://www.w3.org/2000/svg">
  <!-- Tree Stump -->
  <path d="M30 40 L35 90 L65 90 L70 40 Z" fill="#78350F" stroke="#451A03" stroke-width="3" stroke-linejoin="round" />
  <!-- Bark Lines -->
  <path d="M40 50 L42 80 M50 45 L50 85 M60 50 L58 80" stroke="#451A03" stroke-width="2" fill="none" opacity="0.6" />
  <!-- Roots -->
  <path d="M35 90 Q25 95 20 100 M65 90 Q75 95 80 100" stroke="#78350F" stroke-width="4" fill="none" stroke-linecap="round" />
  
  <!-- Fire -->
  <path d="M25 40 Q50 -10 75 40 Q65 10 50 35 Q35 10 25 40 Z" fill="#EF4444" opacity="0.9" />
  <path d="M35 40 Q50 0 65 40 Q55 20 50 35 Q45 20 35 40 Z" fill="#F97316" opacity="0.9" />
  <path d="M42 40 Q50 15 58 40 Q54 25 50 35 Q46 25 42 40 Z" fill="#FACC15" opacity="0.9" />
  
  <!-- Eyes -->
  <circle cx="42" cy="55" r="4" fill="#000" />
  <circle cx="58" cy="55" r="4" fill="#000" />
  <circle cx="43" cy="54" r="1.5" fill="#FFF" />
  <circle cx="59" cy="54" r="1.5" fill="#FFF" />
  
  <!-- Mouth -->
  <path d="M40 70 Q50 80 60 70" stroke="#000" stroke-width="3" fill="none" stroke-linecap="round" />
</svg>